<?xml version="1.0" standalone="no"?>
<!DOCTYPE svg PUBLIC "-//W3C//DTD SVG 20010904//EN"
 "http://www.w3.org/TR/2001/REC-SVG-20010904/DTD/svg10.dtd">
<svg version="1.0" xmlns="http://www.w3.org/2000/svg"
 width="256.000000pt" height="256.000000pt" viewBox="0 0 256.000000 256.000000"
 preserveAspectRatio="xMidYMid meet">
<metadata>
Created by potrace 1.16, written by Peter Selinger 2001-2019
</metadata>
<g transform="translate(0.000000,256.000000) scale(0.100000,-0.100000)"
fill="#000000" stroke="none">
<path d="M783 2268 c-28 -29 -106 -132 -173 -228 -68 -96 -140 -198 -162 -227
-21 -29 -38 -63 -38 -75 0 -16 25 -48 75 -98 41 -41 75 -78 75 -83 0 -5 -9
-22 -21 -38 l-21 -29 -50 45 c-56 50 -63 52 -97 29 -20 -14 -22 -23 -18 -55 5
-37 2 -42 -60 -102 -101 -96 -128 -134 -117 -163 13 -34 1064 -1083 1092
-1091 19 -4 35 5 82 52 l58 57 35 -26 c39 -30 91 -42 134 -31 31 7 434 401
459 447 49 93 -34 218 -146 218 -25 0 -55 -7 -66 -15 -31 -23 -34 -19 -34 45
0 35 -9 85 -20 117 -11 32 -17 60 -12 63 4 4 27 13 52 21 29 9 65 33 100 67
49 47 57 52 76 41 40 -21 95 19 80 58 -4 8 5 51 19 95 33 103 32 125 -9 222
-20 48 -34 97 -33 120 1 54 -40 91 -92 82 -28 -4 -56 3 -123 30 l-86 36 -102
-26 c-57 -14 -107 -23 -112 -20 -5 3 -20 -2 -33 -10 -27 -18 -33 -53 -15 -86
8 -16 2 -27 -38 -67 -67 -67 -95 -131 -96 -218 -1 -38 3 -84 7 -101 7 -29 5
-32 -25 -44 -18 -7 -101 -80 -183 -162 l-151 -148 -69 71 c-82 83 -127 109
-190 109 -58 0 -97 -20 -160 -81 l-51 -49 -39 40 -39 40 69 70 c38 39 73 70
78 70 5 0 25 -13 43 -30 35 -31 58 -31 82 -2 26 33 13 62 -54 132 -56 58 -64
71 -55 87 30 58 31 57 215 -125 95 -95 177 -172 182 -172 5 0 20 7 32 16 37
26 29 63 -27 118 -58 57 -59 50 26 172 76 112 194 285 235 346 21 31 38 67 38
80 0 30 -426 458 -456 458 -11 0 -42 -23 -71 -52z m236 -252 c189 -189 180
-157 85 -291 -32 -44 -87 -123 -122 -175 -36 -52 -75 -108 -86 -123 l-20 -28
-168 168 c-92 92 -168 172 -168 176 0 7 53 85 195 287 65 92 109 150 115 150
3 0 79 -74 169 -164z m779 -297 c28 -12 50 -24 49 -28 0 -3 2 -20 6 -38 7 -35
47 -63 89 -63 19 0 27 -10 44 -58 18 -51 19 -62 8 -105 -7 -27 -15 -51 -19
-55 -3 -3 -82 70 -175 163 -93 93 -166 173 -162 176 8 9 70 27 93 28 9 1 39
-9 67 -20z m-59 -264 l142 -145 -15 -27 c-31 -61 -99 -95 -188 -95 -159 0
-262 140 -216 294 13 43 86 118 116 118 11 0 78 -61 161 -145z m-1256 -93 l37
-38 -75 -74 -75 -74 -35 34 c-19 19 -35 37 -35 41 0 9 131 149 140 149 3 0 23
-17 43 -38z m975 -203 c37 -33 126 -79 153 -79 9 0 27 -25 45 -61 36 -76 39
-153 7 -214 -17 -33 -428 -455 -451 -463 -4 -1 -77 68 -162 153 l-154 155 44
45 44 45 106 -105 c64 -64 113 -105 126 -105 23 0 304 278 304 301 0 25 -30
59 -52 59 -12 0 -68 -45 -140 -112 l-119 -112 -94 94 c-52 52 -95 98 -95 101
0 4 10 9 23 13 12 3 87 71 166 151 79 80 151 150 160 155 28 17 52 11 89 -21z
m-603 -200 l40 -39 -68 -67 -67 -68 -57 58 -58 58 58 55 c68 66 88 67 152 3z
m1083 -233 c3 -25 -18 -50 -189 -222 -126 -126 -200 -194 -214 -194 -26 0 -40
10 -49 34 -5 16 31 57 191 218 178 179 201 199 228 196 25 -2 31 -8 33 -32z"/>
</g>
</svg>
